<?xml version="1.0" encoding="UTF-8" standalone="no"?>
<svg width="395px" height="180px" viewBox="0 0 395 180" version="1.1" xmlns="http://www.w3.org/2000/svg" xmlns:xlink="http://www.w3.org/1999/xlink">
    <!-- Generator: Sketch 39.1 (31720) - http://www.bohemiancoding.com/sketch -->
    <title>Page 1</title>
    <desc>Created with Sketch.</desc>
    <defs>
        <polygon id="path-1" points="0 0.293678687 0 64.20641 64.4972229 64.20641 64.4972229 0.293678687 4.14980483e-20 0.293678687"></polygon>
        <polygon id="path-3" points="0.344476744 64.1586729 52.1533396 64.1586729 52.1533396 0.346074937 0.344476744 0.346074937 0.344476744 64.1586729"></polygon>
        <polygon id="path-5" points="88.9484884 43.9210416 88.9484884 0.0895339197 0.439583882 0.0895339197 0.439583882 43.9210416 88.9484884 43.9210416"></polygon>
    </defs>
    <g id="Welcome" stroke="none" stroke-width="1" fill="none" fill-rule="evenodd">
        <g id="Artboard" transform="translate(-1125.000000, -983.000000)">
            <g id="Page-1" transform="translate(1125.000000, 983.000000)">
                <g id="Group-3" transform="translate(0.000000, 0.470497)">
                    <mask id="mask-2" fill="white">
                        <use xlink:href="#path-1"></use>
                    </mask>
                    <g id="Clip-2"></g>
                    <path d="M31.9395775,64.20641 C39.6160504,64.20641 44.9983081,62.1815929 48.527281,58.9240126 C53.4686085,54.6987057 55.4091609,49.1527995 55.9388895,41.9334212 C56.2029884,38.5001684 56.3798198,23.094449 56.3798198,21.8616859 C56.3798198,20.6289228 56.3798198,8.12867472 56.5566512,7.24802056 C56.82075,6.19169383 57.0856143,3.72693148 60.3504884,3.72693148 L63.9674942,3.72693148 C64.4091899,3.72693148 64.4972229,3.37482257 64.4972229,2.84627732 L64.4972229,0.90929643 C64.4972229,0.645787595 64.4091899,0.293678687 63.6145969,0.293678687 C62.8207694,0.293678687 59.9968256,0.557951316 53.9095388,0.557951316 C47.9975523,0.557951316 43.9388508,0.293678687 43.0569903,0.293678687 C42.5272616,0.293678687 42.4392287,0.469351244 42.4392287,0.90929643 L42.4392287,3.02271367 C42.4392287,3.46265885 42.5272616,3.72693148 43.0569903,3.72693148 L46.9388605,3.72693148 C49.2330756,3.72693148 50.6446647,5.31180346 50.9095291,7.60012946 C51.1743934,9.80138298 51.3504593,14.907344 51.3504593,21.5974133 L51.3504593,40.4371493 C51.3504593,46.951546 50.2037345,52.2339434 46.7627946,55.9314688 C43.6747519,59.0996852 38.5573585,60.7723934 33.5279981,60.7723934 C28.4106047,60.7723934 22.7634826,59.1882853 19.499374,54.4344331 C17.4700233,51.4411255 16.7642287,47.3036549 16.6761957,43.2540206 C16.5873973,40.4371493 16.2345,29.2567367 16.2345,24.5907209 L16.2345,18.780542 C16.2345,14.2909625 16.3232984,8.12867472 16.4113314,7.33585683 C16.5873973,5.39887595 18.0877849,3.72693148 20.6460988,3.72693148 L25.0576977,3.72693148 C25.6754593,3.72693148 25.7634922,3.55049513 25.7634922,3.11054995 L25.7634922,0.821460151 C25.7634922,0.469351244 25.6754593,0.293678687 24.9696647,0.293678687 C23.9990058,0.293678687 19.7634729,0.557951316 12.881593,0.557951316 C5.99971318,0.557951316 1.67691279,0.293678687 0.794286822,0.293678687 C0.0884922481,0.293678687 -0.000306201551,0.469351244 -0.000306201551,0.997896502 L-0.000306201551,2.9341136 C-0.000306201551,3.55049513 0.0884922481,3.72693148 0.617455426,3.72693148 L4.76495543,3.72693148 C7.50010078,3.72693148 8.1170969,5.13536711 8.1170969,8.216511 L8.1170969,29.1681367 C8.1170969,40.7014219 8.46999419,46.5994371 9.52945155,50.5612351 C10.9410407,56.1071414 14.0290833,59.9803393 20.0291027,62.3572654 C22.940314,63.5900285 27.3519128,64.20641 31.9395775,64.20641" id="Fill-1" fill="#FFFFFF" mask="url(#mask-2)"></path>
                </g>
                <path d="M102.499055,34.3231333 C102.499055,30.4018163 102.306914,24.3762476 102.786885,19.976032 C102.978261,18.6371016 103.457466,17.9680182 105.854259,17.9680182 L106.81267,17.9680182 C107.196187,17.9680182 107.387563,17.6808318 107.387563,17.2981712 L107.387563,15.2901574 C107.387563,14.7157846 107.196187,14.5248361 106.716982,14.5248361 C106.045635,14.5248361 102.690431,14.8112588 100.677156,14.8112588 C97.609782,14.8112588 93.4875436,14.5248361 92.8169622,14.5248361 C92.3377568,14.5248361 92.1456153,14.7157846 92.1456153,15.002971 L92.1456153,17.2981712 C92.1456153,17.776306 92.3377568,17.9680182 92.8169622,17.9680182 L94.4459545,17.9680182 C96.0757122,17.9680182 97.514094,18.5416273 97.9932994,19.6896093 C98.4725048,20.8368275 98.7603343,26.3850251 98.7603343,28.6802252 C98.9517103,31.7407467 99.0473983,34.7065577 99.0473983,40.1577536 L99.0473983,46.4705087 L98.6646463,46.4705087 C97.514094,45.2270525 88.5990359,34.0359468 86.8735901,32.0279331 C84.8603149,29.636495 73.8362936,15.7682923 73.5492297,15.3856317 C73.1649467,14.8112588 72.5900533,14.6203103 71.248125,14.6203103 C70.0975727,14.6203103 68.0842975,14.8112588 66.5509932,14.8112588 C65.4961289,14.8112588 63.9628246,14.7157846 62.7165843,14.6203103 C61.470344,14.6203103 60.4154797,14.5248361 60.2241037,14.5248361 C59.8405862,14.5248361 59.6484448,14.8112588 59.6484448,15.0984452 L59.6484448,17.3944092 C59.6484448,17.776306 59.8405862,17.9680182 60.2241037,17.9680182 L61.0868266,17.9680182 C63.7706831,17.9680182 66.1674758,19.5933713 66.1674758,23.0373172 L66.1674758,33.0804409 C66.1674758,43.8881221 65.9753343,50.6790121 65.8796463,51.8269941 C65.5925824,54.02672 64.0585126,54.6965671 63.0993362,54.6965671 L60.8946851,54.6965671 C60.6076211,54.6965671 60.5111676,54.7912775 60.5111676,54.9829898 L60.5111676,57.4699021 C60.5111676,57.948037 60.6076211,58.1397492 60.7989971,58.1397492 C61.566032,58.1397492 65.8796463,57.8525628 67.2215746,57.8525628 C70.0018847,57.8525628 73.8362936,58.1397492 74.5076405,58.1397492 C74.9868459,58.1397492 74.9868459,57.948037 74.9868459,57.5653763 L74.9868459,55.2701762 C74.9868459,54.8875155 74.9868459,54.6965671 74.5076405,54.6965671 L72.4943653,54.6965671 C71.535189,54.6965671 70.4810901,53.6440594 70.1932607,51.4443334 C70.0018847,50.5835379 69.6183672,41.0185491 69.6183672,35.2801668 L69.6183672,22.1765217 L69.8097432,22.1765217 C71.343813,23.8981127 79.1090843,34.2276591 81.4094234,36.9055199 C82.4642878,38.1489761 86.5857607,43.0273266 90.9958285,48.287574 C94.9251599,52.9749761 98.1854409,56.896293 98.8560223,57.5653763 C99.2395397,57.8525628 100.197951,58.5224099 101.061439,58.5224099 C102.211226,58.5224099 102.499055,57.5653763 102.499055,56.7045808 L102.499055,34.3231333 Z" id="Fill-4" fill="#FFFFFF"></path>
                <path d="M123.378786,33.3669399 C123.378786,32.6970928 123.474474,21.3158025 123.474474,20.358769 C123.570927,18.3499915 124.432885,17.9673308 127.021053,17.9673308 L128.650811,17.9673308 C129.130016,17.9673308 129.22647,17.6809082 129.22647,17.2982475 L129.22647,15.0022836 C129.22647,14.7150972 129.034328,14.5241487 128.650811,14.5241487 C127.884542,14.5241487 122.995268,14.8113352 120.214958,14.8113352 C115.709968,14.9068094 109.766596,14.5241487 109.190937,14.5241487 C108.80742,14.5241487 108.616044,14.7150972 108.616044,15.0977578 L108.616044,17.2982475 C108.616044,17.6809082 108.711732,17.9673308 109.190937,17.9673308 L110.916383,17.9673308 C114.942933,17.9673308 115.805656,18.9243644 115.805656,19.9761083 C115.805656,21.3158025 115.997032,30.8800276 115.997032,32.4099064 L115.997032,36.6191736 C115.997032,39.8706435 115.901344,52.0180189 115.805656,52.8788144 C115.61428,54.6004055 114.08021,54.6966435 111.683418,54.6966435 L109.574454,54.6966435 C109.190937,54.6966435 108.999561,54.9830661 108.999561,55.2702526 L108.999561,57.3745043 C108.999561,57.8526392 109.190937,58.1398256 109.574454,58.1398256 C110.149348,58.1398256 115.709968,57.8526392 118.969484,57.8526392 C123.283098,57.8526392 128.267294,58.1398256 129.034328,58.1398256 C129.513534,58.1398256 129.609987,57.8526392 129.609987,57.4699785 L129.609987,55.1747784 C129.609987,54.8875919 129.513534,54.6966435 129.034328,54.6966435 L127.596712,54.6966435 C124.816402,54.6966435 123.666615,53.3569493 123.474474,51.1572234 C123.378786,49.7228188 123.378786,38.7234253 123.378786,38.1490524 L123.378786,33.3669399 Z" id="Fill-6" fill="#FFFFFF"></path>
                <path d="M226.44263,19.6895329 C226.44263,17.9679419 227.880246,17.5852812 229.318628,17.5852812 C233.153037,17.5852812 235.836893,18.4460767 238.425062,20.0721936 C240.150508,21.2194118 241.58889,23.8017983 241.58889,26.6713714 C241.58889,29.1582837 239.959132,36.6190208 229.318628,36.6190208 C228.072388,36.6190208 227.113977,36.5235466 226.44263,36.4280724 L226.44263,19.6895329 Z M219.157329,36.0454118 C219.060876,41.8792682 219.157329,47.5229401 219.060876,52.2095784 C219.060876,54.3138301 217.910324,54.6964907 215.61075,54.6964907 L214.460198,54.6964907 C214.07668,54.6964907 213.885304,54.8874392 213.885304,55.1746256 L213.885304,57.3743515 C213.885304,57.8524864 214.07668,58.1396728 214.460198,58.1396728 C215.131545,58.1396728 220.020052,57.8524864 222.416079,57.8524864 C225.579907,57.8524864 230.756244,58.1396728 231.427591,58.1396728 C232.002484,58.1396728 232.194626,57.9479606 232.194626,57.4698257 L232.194626,55.1746256 C232.194626,54.8874392 232.002484,54.6964907 231.619733,54.6964907 L229.126486,54.6964907 C227.209665,54.6964907 226.634771,53.643983 226.44263,52.3050526 L226.44263,41.9755062 L226.44263,39.6795423 C227.113977,39.4878301 227.975934,39.4878301 228.93511,39.4878301 C232.961661,39.4878301 234.399277,41.5928456 237.850169,47.5229401 C238.712891,48.9573447 242.930818,56.7045044 244.752717,58.0441986 C246.381709,57.9479606 248.682814,57.8524864 250.887465,57.8524864 C251.845876,57.8524864 252.997194,57.9479606 253.858386,57.9479606 C254.817562,58.0441986 255.583831,58.1396728 255.775973,58.1396728 C256.15949,58.1396728 256.351632,57.8524864 256.351632,57.4698257 L256.351632,55.5565225 C256.351632,54.9829134 256.255178,54.6964907 255.871661,54.6964907 C254.146215,54.6964907 252.90074,54.6010165 251.558812,53.643983 C249.736913,52.3050526 247.532262,49.4354796 246.190333,47.5229401 C242.259471,41.9755062 240.341884,39.0096952 238.137233,38.5315603 L238.137233,38.3406119 C245.711128,35.6627511 249.449083,31.8369083 249.449083,25.2369668 C249.449083,23.0372408 248.203609,20.263142 246.09388,18.2551283 C243.697087,16.1508766 239.383473,14.5247598 233.632242,14.5247598 C232.386767,14.5247598 224.045837,14.8111824 222.895285,14.8111824 C221.169839,14.8111824 215.227233,14.5247598 214.748027,14.5247598 C214.36451,14.5247598 214.173134,14.7157082 214.173134,15.0028946 L214.173134,17.2980948 C214.173134,17.6807554 214.268822,17.9679419 214.555886,17.9679419 L215.514297,17.9679419 C218.198153,17.9679419 219.060876,19.0196858 219.157329,20.9322253 L219.157329,30.1153173 L219.157329,36.0454118 Z" id="Fill-8" fill="#FFFFFF"></path>
                <path d="M271.455636,59.0002392 C280.179318,59.0002392 284.779996,52.8784325 284.779996,45.7048819 C284.779996,40.9227693 283.630209,38.532095 281.712622,36.5233175 C279.31736,34.0364051 275.76925,32.9838974 271.359948,31.3585443 C269.538814,30.6886972 266.087157,29.2542926 264.648775,27.4364635 C263.595442,26.1930074 263.115471,24.1849937 263.115471,22.750589 C263.115471,21.028998 264.648775,16.9159688 269.921566,16.9159688 C272.701876,16.9159688 274.810839,17.8722385 276.249221,19.4983554 C278.262496,21.7935555 279.028766,25.1412634 279.604424,26.2892454 C279.700112,26.575668 279.892254,26.7673802 280.179318,26.6711422 L281.904764,26.2892454 C282.191828,26.1930074 282.287516,26.0020589 282.287516,25.7148725 C282.191828,24.3759421 281.329105,18.159425 281.329105,15.0026655 C281.329105,14.5245306 281.233417,14.14187 280.466382,14.14187 C279.700112,14.14187 279.413048,14.14187 279.220907,14.4290564 L278.83739,15.0981397 C278.645248,15.5762746 278.166808,15.4808004 277.207632,14.9064275 C276.057079,14.3335822 274.043804,13.6637351 270.401537,13.6637351 C266.950645,13.6637351 263.882506,14.5245306 261.390791,16.5325443 C259.281828,18.3503734 257.268552,21.3154206 257.268552,24.5668905 C257.268552,29.2542926 258.418339,32.3148141 260.623756,34.4190658 C263.498988,37.0014524 268.100432,38.7230434 270.017254,39.3928905 C275.098669,41.30543 278.83739,43.6968682 278.83739,49.1488278 C278.83739,53.2610932 274.235946,55.6525313 271.168572,55.6525313 C267.621227,55.6525313 264.457399,53.7399918 263.019017,50.8704188 C261.294337,47.7144232 261.294337,45.7048819 261.294337,44.3659515 C261.294337,43.9832908 260.911585,43.7923424 260.528068,43.6968682 L258.802622,43.5051559 C258.418339,43.5051559 258.226963,43.7923424 258.131275,44.175003 C258.035587,45.7048819 257.36424,53.3573312 257.077176,56.035192 C256.980723,56.5133269 257.268552,56.8959875 257.843446,57.0876997 C258.610481,57.2786482 259.089686,57.0876997 259.281828,56.6095649 L259.568891,55.8442436 C259.761033,55.0789223 260.336692,55.1743965 261.007273,55.6525313 C263.211159,57.3741224 266.566362,59.0002392 271.455636,59.0002392" id="Fill-10" fill="#FFFFFF"></path>
                <path d="M301.018706,33.3669399 C301.018706,32.6970928 301.11516,21.3158025 301.11516,20.358769 C301.210848,18.3499915 302.073571,17.9673308 304.661739,17.9673308 L306.291497,17.9673308 C306.771468,17.9673308 306.867156,17.6809082 306.867156,17.2982475 L306.867156,15.0022836 C306.867156,14.7150972 306.67578,14.5241487 306.291497,14.5241487 C305.524462,14.5241487 300.635189,14.8113352 297.855644,14.8113352 C293.349889,14.9068094 287.407282,14.5241487 286.831623,14.5241487 C286.448871,14.5241487 286.25673,14.7150972 286.25673,15.0977578 L286.25673,17.2982475 C286.25673,17.6809082 286.352418,17.9673308 286.831623,17.9673308 L288.557069,17.9673308 C292.582854,17.9673308 293.445577,18.9243644 293.445577,19.9761083 C293.445577,21.3158025 293.637718,30.8800276 293.637718,32.4099064 L293.637718,36.6191736 C293.637718,39.8706435 293.541265,52.0180189 293.445577,52.8788144 C293.253435,54.6004055 291.720131,54.6966435 289.324104,54.6966435 L287.215141,54.6966435 C286.831623,54.6966435 286.640247,54.9830661 286.640247,55.2702526 L286.640247,57.3745043 C286.640247,57.8526392 286.831623,58.1398256 287.215141,58.1398256 C287.790034,58.1398256 293.349889,57.8526392 296.609404,57.8526392 C300.923018,57.8526392 305.90798,58.1398256 306.67578,58.1398256 C307.15422,58.1398256 307.249908,57.8526392 307.249908,57.4699785 L307.249908,55.1747784 C307.249908,54.8875919 307.15422,54.6966435 306.67578,54.6966435 L305.237398,54.6966435 C302.457088,54.6966435 301.306536,53.3569493 301.11516,51.1572234 C301.018706,49.7228188 301.018706,38.7234253 301.018706,38.1490524 L301.018706,33.3669399 Z" id="Fill-12" fill="#FFFFFF"></path>
                <path d="M47.5060988,85.603633 C46.0501105,85.603633 44.7158372,84.4533596 44.7158372,82.5163787 C44.7158372,79.6720109 46.1710601,75.9790682 48.234093,72.7107949 C51.2670194,67.808003 54.4821357,65.5074563 57.0304981,65.5074563 C59.0322907,65.5074563 60.1238992,67.0205316 60.0634244,68.8971728 C60.0634244,72.8925778 53.8153818,85.603633 47.5060988,85.603633 M48.4162829,88.5091043 C57.212688,88.5091043 62.4900717,76.4633135 62.4900717,69.8053235 C62.4900717,65.6892392 60.0634244,62.7234281 55.9993643,62.7234281 C47.930188,62.7234281 42.1674748,73.0735969 42.1674748,80.700841 C42.1674748,85.3011706 45.0794516,88.5091043 48.4162829,88.5091043" id="Fill-14" fill="#FFFFFF"></path>
                <path d="M146.466536,90.0446352 C146.466536,89.3755519 146.562989,77.9934978 146.562989,77.0364643 C146.658677,75.0284506 147.5214,74.6457899 150.109569,74.6457899 L151.739327,74.6457899 C152.218532,74.6457899 152.31422,74.3586035 152.31422,73.9759428 L152.31422,71.6807427 C152.31422,71.3935562 152.122844,71.2026078 151.739327,71.2026078 C150.972292,71.2026078 146.083018,71.4890304 143.303474,71.4890304 C138.797718,71.5852684 132.854346,71.2026078 132.279453,71.2026078 C131.895935,71.2026078 131.703794,71.3935562 131.703794,71.7762169 L131.703794,73.9759428 C131.703794,74.3586035 131.800247,74.6457899 132.279453,74.6457899 L134.004898,74.6457899 C138.030683,74.6457899 138.893406,75.6020596 138.893406,76.6538036 C138.893406,77.9934978 139.085547,87.5584866 139.085547,89.0883655 L139.085547,93.2968689 C139.085547,96.5491026 138.989094,108.695714 138.893406,109.55651 C138.70203,111.278101 137.168726,111.374339 134.771933,111.374339 L132.66297,111.374339 C132.279453,111.374339 132.088077,111.660761 132.088077,111.947948 L132.088077,114.0522 C132.088077,114.530334 132.279453,114.817521 132.66297,114.817521 C133.237863,114.817521 138.797718,114.530334 142.057234,114.530334 C146.370848,114.530334 151.355809,114.817521 152.122844,114.817521 C152.602049,114.817521 152.697737,114.530334 152.697737,114.147674 L152.697737,111.852474 C152.697737,111.565287 152.602049,111.374339 152.122844,111.374339 L150.684462,111.374339 C147.904152,111.374339 146.754365,110.034645 146.562989,107.834919 C146.466536,106.400514 146.466536,95.4011206 146.466536,94.8275115 L146.466536,90.0446352 Z" id="Fill-16" fill="#FFFFFF"></path>
                <path d="M168.853773,76.3672282 C168.853773,74.6456371 170.29139,74.2629765 171.729771,74.2629765 C175.56418,74.2629765 178.248037,75.123772 180.836205,76.7498889 C182.562417,77.8978708 184.000033,80.4802574 184.000033,83.3498304 C184.000033,85.835979 182.370275,93.2967161 171.729771,93.2967161 C170.483531,93.2967161 169.524355,93.2012419 168.853773,93.1057677 L168.853773,76.3672282 Z M161.01731,92.723107 C160.921622,98.5577273 161.01731,104.200635 160.921622,108.887274 C160.921622,110.991525 159.77107,111.374186 157.469965,111.374186 L156.319413,111.374186 C155.935895,111.374186 155.744519,111.565134 155.744519,111.852321 L155.744519,114.052047 C155.744519,114.530182 155.935895,114.817368 156.319413,114.817368 C156.99076,114.817368 161.880033,114.530182 164.27606,114.530182 C167.439888,114.530182 172.616225,114.817368 173.286806,114.817368 C173.8617,114.817368 174.053841,114.625656 174.053841,114.147521 L174.053841,111.852321 C174.053841,111.565134 173.8617,111.374186 173.478948,111.374186 L170.986467,111.374186 C169.069645,111.374186 168.493986,110.321678 168.30261,108.982748 L168.30261,98.6532015 L168.30261,96.3572376 C168.973192,96.1662891 169.83668,96.1662891 170.795091,96.1662891 C174.820876,96.1662891 176.258492,98.2705409 179.710149,104.200635 C180.572872,105.63504 184.790798,113.3822 186.611932,114.721894 C188.24169,114.625656 190.542029,114.530182 192.74668,114.530182 C193.705857,114.530182 194.855643,114.625656 195.719132,114.625656 C196.677543,114.721894 197.443812,114.817368 197.635953,114.817368 C198.019471,114.817368 198.210847,114.530182 198.210847,114.147521 L198.210847,112.234982 C198.210847,111.660609 198.115159,111.374186 197.731641,111.374186 C196.006196,111.374186 194.759955,111.277948 193.418027,110.321678 C191.596893,108.982748 189.392242,106.113175 188.049548,104.200635 C184.119452,98.6532015 182.201864,95.6881543 179.997979,95.2100194 L179.997979,95.0183072 C187.570343,92.3404464 191.309064,88.5146036 191.309064,81.914662 C191.309064,79.7149361 190.063589,76.9408373 187.95386,74.9328236 C185.557833,72.8285719 181.244219,71.202455 175.492223,71.202455 C174.245983,71.202455 165.905818,71.4888777 164.755266,71.4888777 C163.02982,71.4888777 157.086448,71.202455 156.608008,71.202455 C156.223725,71.202455 156.031583,71.3934035 156.031583,71.6805899 L156.031583,73.97579 C156.031583,74.3592145 156.128037,74.6456371 156.415101,74.6456371 L157.374277,74.6456371 C160.058134,74.6456371 160.921622,75.6973811 161.01731,77.6106844 L161.01731,86.7930125 L161.01731,92.723107 Z" id="Fill-18" fill="#FFFFFF"></path>
                <path d="M232.978578,101.522469 C232.978578,99.8963522 234.800478,99.5136915 235.758889,99.5136915 L237.388646,99.5136915 C237.676476,99.5136915 237.868617,99.2272689 237.868617,98.9400824 L237.868617,96.6441185 C237.868617,96.3576959 237.676476,96.1659836 237.292193,96.1659836 C236.909441,96.1659836 232.595827,96.3576959 229.048482,96.3576959 C223.872144,96.3576959 219.175013,96.1659836 218.600119,96.1659836 C218.215836,96.1659836 218.120148,96.3576959 218.120148,96.6441185 L218.120148,98.9400824 C218.120148,99.2272689 218.215836,99.4182173 218.600119,99.4182173 L220.900458,99.4182173 C223.392939,99.4182173 225.596825,100.088064 225.596825,102.28779 L225.596825,105.826447 C225.596825,107.73975 225.405449,108.983206 224.159974,109.939476 C222.625904,111.182932 219.55853,112.043728 216.203327,112.043728 C213.51947,112.043728 209.684296,110.608559 207.000439,107.73975 C203.262484,103.817669 201.15352,98.3664734 201.15352,91.0012105 C201.15352,86.6972328 203.262484,81.6279339 206.137716,78.4711744 C209.684296,74.6453316 213.423016,73.5935877 216.394703,73.5935877 C220.80477,73.5935877 223.488627,75.5068909 226.076796,78.1847517 C228.377135,80.4799519 230.006892,83.4449991 230.678239,84.9756418 C230.966069,85.7401993 231.157445,85.8364373 231.445274,85.7401993 L233.266408,85.1665902 C233.554237,85.071116 233.649925,84.8801675 233.649925,84.4012689 C233.457784,82.6796778 232.211544,73.7852999 232.211544,73.3064012 C232.211544,72.6373179 232.020168,72.2546573 231.157445,72.2546573 C230.39041,72.2546573 230.10258,72.5410799 229.911204,72.9245044 L229.431999,73.7852999 C229.240623,74.0717225 228.85634,74.0717225 228.090071,73.4026392 C226.268172,72.062945 221.763947,70.341354 217.162503,70.341354 C210.355642,70.341354 204.508724,72.3501315 200.002968,76.1759743 C195.401524,80.1927655 192.909044,86.0273857 192.909044,91.862006 C192.909044,99.3227431 194.825865,104.487516 198.660274,108.69602 C203.166796,113.669844 210.834848,115.678622 215.819809,115.678622 C221.955323,115.678622 227.130894,114.338928 232.211544,111.852015 C232.882891,111.565593 233.266408,111.278406 233.266408,110.800271 C233.266408,110.321373 232.978578,109.748527 232.978578,108.886968 L232.978578,101.522469 Z" id="Fill-20" fill="#FFFFFF"></path>
                <path d="M251.684048,90.0446352 C251.684048,89.3755519 251.780502,77.9934978 251.780502,77.0364643 C251.87619,75.0284506 252.738913,74.6457899 255.327847,74.6457899 L256.956839,74.6457899 C257.436045,74.6457899 257.532498,74.3586035 257.532498,73.9759428 L257.532498,71.6807427 C257.532498,71.3935562 257.340357,71.2026078 256.956839,71.2026078 C256.19057,71.2026078 251.301297,71.4890304 248.520986,71.4890304 C244.015231,71.5852684 238.072624,71.2026078 237.496965,71.2026078 C237.113448,71.2026078 236.922072,71.3935562 236.922072,71.7762169 L236.922072,73.9759428 C236.922072,74.3586035 237.01776,74.6457899 237.496965,74.6457899 L239.223176,74.6457899 C243.248196,74.6457899 244.110919,75.6020596 244.110919,76.6538036 C244.110919,77.9934978 244.30306,87.5584866 244.30306,89.0883655 L244.30306,93.2968689 C244.30306,96.5491026 244.206607,108.695714 244.110919,109.55651 C243.919543,111.278101 242.385473,111.374339 239.990211,111.374339 L237.881248,111.374339 C237.496965,111.374339 237.305589,111.660761 237.305589,111.947948 L237.305589,114.0522 C237.305589,114.530334 237.496965,114.817521 237.881248,114.817521 C238.456141,114.817521 244.015231,114.530334 247.274746,114.530334 C251.58836,114.530334 256.574087,114.817521 257.340357,114.817521 C257.820328,114.817521 257.916016,114.530334 257.916016,114.147674 L257.916016,111.852474 C257.916016,111.565287 257.820328,111.374339 257.340357,111.374339 L255.90274,111.374339 C253.12243,111.374339 251.972643,110.034645 251.780502,107.834919 C251.684048,106.400514 251.684048,95.4011206 251.684048,94.8275115 L251.684048,90.0446352 Z" id="Fill-22" fill="#FFFFFF"></path>
                <path d="M303.295774,91.0012868 C303.295774,87.0799699 303.103633,81.0544012 303.582838,76.6541855 C303.77498,75.3152551 304.254185,74.645408 306.650978,74.645408 L307.610154,74.645408 C307.992906,74.645408 308.184282,74.3589854 308.184282,73.9763247 L308.184282,71.9675472 C308.184282,71.3939381 307.992906,71.2022259 307.513701,71.2022259 C306.842354,71.2022259 303.48715,71.4894123 301.473875,71.4894123 C298.407266,71.4894123 294.284263,71.2022259 293.613681,71.2022259 C293.135241,71.2022259 292.9431,71.3939381 292.9431,71.6811246 L292.9431,73.9763247 C292.9431,74.4544596 293.135241,74.645408 293.613681,74.645408 L295.243439,74.645408 C296.873197,74.645408 298.310813,75.2190171 298.790018,76.3669991 C299.269224,77.514981 299.557053,83.0624149 299.557053,85.3583788 C299.748429,88.4189003 299.844883,91.3839475 299.844883,96.8359071 L299.844883,103.148662 L299.4606,103.148662 C298.310813,101.904442 289.395755,90.7141004 287.670309,88.7060867 C285.657799,86.3146485 274.633013,72.4456821 274.345949,72.0630214 C273.962431,71.4894123 273.387538,71.2977001 272.044844,71.2977001 C270.895057,71.2977001 268.881782,71.4894123 267.347712,71.4894123 C266.292848,71.4894123 264.758778,71.3939381 263.513303,71.2977001 C262.267063,71.2977001 261.212199,71.2022259 261.020823,71.2022259 C260.637305,71.2022259 260.445164,71.4894123 260.445164,71.7765988 L260.445164,74.0717989 C260.445164,74.4544596 260.637305,74.645408 261.020823,74.645408 L261.883546,74.645408 C264.567402,74.645408 266.964195,76.2715248 266.964195,79.714707 L266.964195,89.7578307 C266.964195,100.566276 266.772819,107.357166 266.677131,108.505148 C266.388536,110.704874 264.855232,111.373957 263.896821,111.373957 L261.691404,111.373957 C261.403575,111.373957 261.307887,111.469431 261.307887,111.661143 L261.307887,114.148056 C261.307887,114.626191 261.403575,114.817139 261.595716,114.817139 C262.362751,114.817139 266.677131,114.530716 268.019059,114.530716 C270.798604,114.530716 274.633013,114.817139 275.304359,114.817139 C275.78433,114.817139 275.78433,114.626191 275.78433,114.24353 L275.78433,111.947566 C275.78433,111.565669 275.78433,111.373957 275.304359,111.373957 L273.29185,111.373957 C272.332673,111.373957 271.277809,110.321449 270.990745,108.121723 C270.798604,107.261691 270.415852,97.6967026 270.415852,91.9575566 L270.415852,78.8539114 L270.607228,78.8539114 C272.141297,80.5762663 279.905803,90.9058126 282.206142,93.5836734 C283.260241,94.8271296 287.38248,99.7047163 291.792547,104.965728 C295.722644,109.652366 298.981394,113.574447 299.652741,114.24353 C300.036259,114.530716 300.99467,115.200563 301.857392,115.200563 C303.007945,115.200563 303.295774,114.24353 303.295774,113.382734 L303.295774,91.0012868 Z" id="Fill-24" fill="#FFFFFF"></path>
                <path d="M69.2605707,65.990403 L63.8614719,65.990403 C63.5583324,65.990403 63.4090591,65.6948149 63.5307742,65.2709093 L63.773439,64.2420792 C63.8951541,63.8181737 64.3138847,62.8481556 64.7992141,62.8481556 L70.0773634,62.8481556 C71.8969661,57.6429014 73.662218,53.4069014 76.8773343,49.8354019 C78.5752219,47.8984211 81.9120533,45.7193176 85.8559293,45.7193176 C89.3741851,45.7193176 91.3155029,47.8380814 91.3155029,49.290817 C91.3155029,51.1674582 90.1021793,52.0756089 88.8896211,52.0756089 C86.9475378,52.0756089 86.4017335,50.9856753 86.2195436,49.6543828 C86.1590688,49.0486944 85.5527897,47.8984211 83.7324215,47.8984211 C78.0906579,47.8984211 76.8712103,55.8945776 74.8694176,62.6740107 C74.8694176,62.6740107 83.3006773,62.8993298 90.1825572,62.8993298 C97.5941657,62.8993298 101.564069,62.6350572 102.358662,62.6350572 C103.152489,62.6350572 103.240522,62.8993298 103.240522,63.2514387 L103.240522,65.2762559 C103.240522,65.7169649 103.152489,66.06831 102.534728,66.06831 L98.2991948,66.06831 C95.8296793,66.06831 94.594156,66.8611279 94.594156,68.3573998 C94.594156,69.0616176 94.682189,70.1179443 94.9470533,71.3507074 C95.476782,74.5196876 98.7408905,84.9958823 100.329311,89.925407 C101.388003,93.2715873 106.505396,108.413034 108.534747,113.783268 C110.564098,109.645797 117.445978,91.5110428 118.151772,89.4854618 C119.033633,87.1085357 122.38654,76.9844499 123.710096,73.1112519 C124.415891,70.9099984 124.945619,69.3258902 124.945619,68.0931272 C124.945619,67.0375642 124.327858,66.06831 122.122441,66.06831 L119.828226,66.06831 C119.475328,66.06831 119.38653,65.8048012 119.38653,65.2762559 L119.38653,63.2514387 C119.38653,62.8114935 119.475328,62.6350572 119.916259,62.6350572 C120.710086,62.6350572 124.768788,62.8993298 130.327877,62.8993298 C136.768827,62.8993298 138.974243,62.6350572 139.768071,62.6350572 C140.297799,62.6350572 140.385832,62.8114935 140.385832,63.2514387 L140.385832,65.4519285 C140.385832,65.8048012 140.297799,66.06831 139.768071,66.06831 L137.386588,66.06831 C134.474611,66.06831 132.798158,67.4767456 131.121704,69.5023266 C128.827489,72.3191978 121.768778,90.366116 120.269156,94.0636414 C119.210464,96.9691127 107.828953,124.96368 107.387257,125.843571 C107.034359,126.547789 106.593429,126.988498 106.152499,126.988498 C105.445939,126.988498 105.093807,126.107843 104.652111,124.96368 C101.828933,116.864412 94.682189,96.7926764 93.5346986,93.6229324 L92.6528382,90.6303886 C90.5354545,84.3795008 86.3879545,71.61498 85.2412297,68.9737813 C84.3593692,66.9489642 83.4767432,66.06831 81.6242238,66.06831 L73.4195533,65.990403 C71.8418498,70.893195 69.0515882,81.2502379 66.0178963,88.9981614 C62.3174506,98.441707 58.0099603,105.160037 51.5184874,105.160037 C49.0918401,105.160037 47.1512878,103.525518 47.1512878,101.588537 C47.1512878,100.196905 48.1824215,98.986292 49.7593595,98.986292 C51.5184874,98.986292 52.4286715,100.68115 52.6108614,101.70998 C52.7325766,102.315669 53.1566657,102.738811 53.6427607,102.738811 C56.5539719,102.738811 59.8303285,97.6542357 63.1059196,86.4562559 L69.2605707,65.990403 Z" id="Fill-26" fill="#FFFFFF"></path>
                <path d="M324.583365,90.0446352 L324.583365,94.8275115 C324.583365,95.4011206 324.583365,106.400514 324.679819,107.834919 C324.871195,110.034645 326.021747,111.374339 328.802057,111.374339 L329.90821,111.374339 C331.537968,111.374339 333.071272,110.417305 333.838307,109.365561 C334.509654,108.60024 339.397396,97.1227116 341.698501,92.3405991 C342.369848,91.0016687 348.025391,77.9934978 348.601049,76.367381 C348.792425,75.7937719 349.368084,74.7412641 348.696737,74.4540777 C348.504596,74.2631292 348.217532,73.7849944 348.31322,73.4978079 C348.217532,73.3068595 348.408908,73.0196731 349.272396,72.8287246 C351.09353,72.5415382 353.778152,70.8199471 354.640875,70.0546258 C354.832251,69.6719652 355.215768,69.3847787 355.790662,69.3847787 C356.365555,69.3847787 356.557697,69.7674394 356.749073,70.4372865 C358.091001,74.2631292 362.979509,87.9403835 364.225749,91.7662263 C365.664131,96.5491026 369.786369,107.834919 370.457716,108.791188 C371.703956,110.512779 373.333714,111.374339 374.963472,111.374339 L376.78384,111.374339 C377.167358,111.374339 377.263046,111.660761 377.263046,111.947948 L377.263046,113.956725 C377.263046,114.243912 377.167358,114.817521 376.592464,114.817521 C375.441912,114.817521 370.361263,114.530334 368.156611,114.530334 C366.335478,114.530334 360.67917,114.817521 359.432929,114.817521 C358.761582,114.817521 358.665894,114.339386 358.665894,113.956725 L358.665894,111.947948 C358.665894,111.660761 358.761582,111.374339 359.145865,111.374339 L360.67917,111.374339 C361.829722,111.374339 362.213239,110.512779 362.213239,109.748222 C361.829722,107.834919 359.241553,100.183233 358.473753,97.9835072 L343.040429,97.9835072 C342.656912,99.1314891 339.589538,107.070361 339.20602,108.218343 C338.631892,110.130883 338.918956,111.374339 340.931466,111.374339 L343.328259,111.374339 C343.903918,111.374339 343.999606,111.660761 343.999606,112.043422 L343.999606,114.147674 C343.999606,114.530334 343.903918,114.817521 343.424712,114.817521 C342.656912,114.817521 337.577028,114.530334 336.043724,114.530334 L320.174063,114.530334 C316.914547,114.530334 311.354693,114.817521 310.780565,114.817521 C310.396282,114.817521 310.204906,114.530334 310.204906,114.0522 L310.204906,111.947948 C310.204906,111.660761 310.396282,111.374339 310.780565,111.374339 L312.888763,111.374339 C315.28479,111.374339 316.818859,111.278101 317.010235,109.55651 C317.105923,108.695714 317.202377,96.5491026 317.202377,93.2968689 L317.202377,89.0883655 C317.202377,87.5584866 317.010235,77.9934978 317.010235,76.6538036 C317.010235,75.6020596 316.147513,74.6457899 312.122493,74.6457899 L310.396282,74.6457899 C309.917077,74.6457899 309.821389,74.3586035 309.821389,73.9759428 L309.821389,71.7762169 C309.821389,71.3935562 310.012765,71.2026078 310.396282,71.2026078 C310.971941,71.2026078 316.914547,71.5852684 321.420303,71.4890304 C324.200613,71.4890304 329.089887,71.2026078 329.856922,71.2026078 C330.240439,71.2026078 330.431815,71.3935562 330.431815,71.6807427 L330.431815,73.9759428 C330.431815,74.3586035 330.336127,74.6457899 329.856922,74.6457899 L328.227164,74.6457899 C325.63823,74.6457899 324.775507,75.0284506 324.679819,77.0364643 C324.679819,77.9934978 324.583365,89.3755519 324.583365,90.0446352 M344.478811,94.9229857 L357.516108,94.9229857 C357.13259,93.5840553 352.6276,79.236954 352.435458,78.4716327 C352.243317,77.8980236 352.147629,77.5153629 351.860565,77.5153629 C351.572735,77.5153629 351.380594,77.8017856 351.09353,78.5671069 C350.805701,79.3324282 344.958016,93.9659522 344.478811,94.9229857" id="Fill-28" fill="#FFFFFF"></path>
                <path d="M149.240722,15.1939958 L149.240722,17.3937217 C149.240722,17.7763824 148.953658,17.9673308 148.570141,17.9673308 L146.364724,17.9673308 C145.118484,17.9673308 143.680867,18.1590431 143.680867,19.4024992 C143.680867,21.6022252 145.310625,25.3325937 147.898794,33.3669399 C148.665828,35.7583781 152.212408,46.8532457 152.787301,48.3838884 L153.075131,48.3838884 C153.65079,46.3751109 158.347156,34.5149219 158.827127,33.0797535 C162.469394,22.4630207 163.715635,19.8806341 163.715635,18.9243644 C163.715635,18.4462295 163.332883,17.9673308 161.703125,17.9673308 L160.648261,17.9673308 C160.264743,17.9673308 160.072602,17.7763824 160.072602,17.2982475 L160.072602,15.0977578 C160.072602,14.8113352 160.264743,14.5241487 160.648261,14.5241487 C161.223154,14.5241487 166.208115,14.8113352 168.412766,14.8113352 L183.066807,14.8113352 L204.539956,14.7150972 C205.498367,14.7150972 206.743842,14.5241487 207.128125,14.5241487 C207.319501,14.5241487 207.510877,14.7150972 207.703018,15.8630791 C207.894394,16.7238746 210.579016,24.9499331 210.770392,25.6197802 C210.86608,26.001677 210.86608,26.1933893 210.674704,26.2888635 L209.140635,26.9587106 C208.949259,27.0541848 208.565741,27.0541848 208.277912,26.5760499 C208.086536,26.2888635 203.485092,20.9323781 201.855334,19.4024992 C200.704782,18.3499915 199.170712,17.9673308 198.212301,17.9673308 L188.051003,17.7763824 L188.051003,34.0360232 C188.626662,34.0360232 194.282204,33.7496006 195.048474,33.5578884 C197.540954,32.888805 198.500131,31.5498746 198.500131,28.5848274 C198.500131,28.2021668 198.595819,28.1059287 198.979336,28.1059287 L201.088299,28.2021668 C201.471817,28.2021668 201.759646,28.3931152 201.663958,28.7757758 C201.471817,29.6365714 201.471817,34.7058703 201.471817,35.5666658 C201.471817,37.6709176 201.759646,40.6359648 201.855334,41.879421 C201.855334,42.2620816 201.663958,42.3575559 201.376129,42.3575559 L199.362088,42.5485043 C199.075024,42.5485043 198.882883,42.5485043 198.787195,42.1666074 C198.307989,39.7751693 197.733096,38.2445266 195.240615,37.6709176 C192.364617,37.0010705 189.009414,37.0010705 188.051003,37.0010705 L188.051003,40.2540679 C188.051003,43.601012 188.243144,49.1492097 188.243144,50.3919021 C188.243144,54.8875919 191.022689,55.1747784 195.144927,55.1747784 C199.362088,55.1747784 202.04671,55.0785404 205.306226,52.4961538 C206.073261,51.9225447 209.428464,47.618567 210.387641,46.0879244 C210.86608,45.4180773 211.34452,45.3226031 211.63235,45.5143153 L213.16642,46.3751109 C213.357796,46.4705851 213.549937,46.7577715 213.454249,47.0441942 L210.002592,57.1827921 C209.811216,57.6616907 209.332776,58.1398256 208.949259,58.1398256 C208.277912,58.1398256 203.197263,57.8526392 183.066807,57.8526392 C181.341361,57.8526392 176.068571,58.1398256 174.918018,58.1398256 C174.438813,58.1398256 174.343125,57.8526392 174.343125,57.4699785 L174.343125,55.2702526 C174.343125,54.8875919 174.534501,54.6966435 175.013706,54.6966435 L175.876429,54.6966435 C180.382185,54.6966435 180.670015,54.313219 180.670015,52.9742886 L180.670015,38.5317131 L180.670015,32.6016186 C180.670015,27.5323197 180.573561,21.3158025 180.477873,20.358769 C180.190809,18.3499915 179.61515,17.9673308 175.780741,17.9673308 L175.027485,17.9673308 L174.82233,17.9673308 L173.494181,17.9673308 C171.672282,17.9673308 170.330354,18.5417037 169.467631,19.4024992 C167.646497,21.2195645 162.469394,33.7496006 161.510984,36.2365129 C160.648261,38.2445266 152.787301,56.9918436 152.021032,58.2352998 C151.733203,58.7134347 151.253997,59.0006211 150.486962,59.0006211 C149.719927,59.0006211 149.240722,58.330774 148.953658,57.5654527 C146.844695,51.9225447 141.76328,38.0535782 140.996245,35.9493265 L140.325664,33.8450748 C138.696672,29.4456229 135.820673,20.7414296 135.149327,19.7851599 C134.382292,18.7326521 133.615257,17.9673308 132.369016,17.9673308 L131.410606,17.9673308 C131.027854,17.9673308 130.9314,17.6809082 130.9314,17.3937217 L130.9314,15.0022836 C130.9314,14.7150972 131.123542,14.5241487 131.507059,14.5241487 C131.986265,14.5241487 137.25829,14.8113352 139.75077,14.8113352 C142.051109,14.8113352 147.898794,14.5241487 148.473687,14.5241487 C149.049346,14.5241487 149.240722,14.7150972 149.240722,15.1939958" id="Fill-30" fill="#FFFFFF"></path>
                <g id="Group-34" transform="translate(65.067829, 115.039556)">
                    <mask id="mask-4" fill="white">
                        <use xlink:href="#path-3"></use>
                    </mask>
                    <g id="Clip-33"></g>
                    <path d="M9.28096899,28.509441 C9.28096899,33.8949505 9.01533915,56.6544759 9.01533915,58.331767 C9.01533915,59.4797489 8.48484496,60.7155672 5.21078488,60.7155672 L0.96376938,60.7155672 C0.43250969,60.7155672 0.344476744,60.8912397 0.344476744,61.3334763 L0.344476744,63.5408402 C0.344476744,63.9823129 0.43250969,64.1587493 1.05256783,64.1587493 C2.20235465,64.1587493 5.38761628,63.8937129 12.3781977,63.8937129 C21.8459496,63.8937129 45.4640407,63.9823129 47.7643798,64.1587493 C48.2956395,61.7749491 51.834564,46.4318607 52.1001938,45.8139516 C52.1889922,45.2838788 52.1889922,45.9712931 51.9233624,45.7948568 L50.5071802,45.2647839 C50.1535174,45.0891114 49.976686,45.2647839 49.7998547,45.6184204 C48.5612694,49.0616025 43.2517345,59.6554215 38.0309981,60.4505308 C35.2881977,60.8034035 19.6336434,60.6277309 17.6877326,60.4505308 C17.4213372,56.8309123 17.4213372,37.7605106 17.4213372,36.2604197 L17.4213372,27.8915318 C17.4213372,21.7116768 17.6877326,8.38042113 17.6877326,7.23243916 C17.6877326,4.6722026 18.0413953,3.78925705 20.7841957,3.78925705 L26.0929651,3.78925705 C26.8010562,3.78925705 26.9786531,3.52422063 26.9786531,3.08274785 L26.9786531,1.05258413 C26.9786531,0.61111136 26.8898547,0.346074937 26.1817636,0.346074937 C25.3856395,0.346074937 21.6691182,0.61111136 13.0862888,0.61111136 C5.74204457,0.61111136 2.55601744,0.346074937 1.58306202,0.346074937 C1.05256783,0.346074937 0.96376938,0.522511287 0.96376938,0.963984061 L0.96376938,2.9063115 C0.96376938,3.34778428 1.05256783,3.78925705 1.58306202,3.78925705 L5.74204457,3.78925705 C8.39681202,3.78925705 8.83850775,4.6722026 9.01533915,6.96740274 C9.1041376,8.55685748 9.28096899,17.9148582 9.28096899,23.5654042 L9.28096899,28.509441 Z" id="Fill-32" fill="#FFFFFF" mask="url(#mask-4)"></path>
                </g>
                <path d="M133.158404,145.44099 C133.158404,144.764269 133.254858,133.259244 133.254858,132.293045 C133.351311,130.262117 134.223985,129.876402 136.840478,129.876402 L138.487077,129.876402 C138.971641,129.876402 139.068859,129.585396 139.068859,129.198917 L139.068859,126.878511 C139.068859,126.589033 138.874422,126.39503 138.487077,126.39503 C137.712387,126.39503 132.770294,126.685271 129.960894,126.685271 C125.406912,126.782273 119.399237,126.39503 118.81822,126.39503 C118.430109,126.39503 118.236437,126.589033 118.236437,126.975513 L118.236437,129.198917 C118.236437,129.585396 118.333656,129.876402 118.81822,129.876402 L120.562038,129.876402 C124.631456,129.876402 125.503365,130.842601 125.503365,131.905802 C125.503365,133.259244 125.697038,142.927345 125.697038,144.474027 L125.697038,148.727595 C125.697038,152.014199 125.600584,164.292947 125.503365,165.162908 C125.309693,166.90283 123.759547,166.999832 121.336728,166.999832 L119.205565,166.999832 C118.81822,166.999832 118.623782,167.28931 118.623782,167.579551 L118.623782,169.706717 C118.623782,170.190198 118.81822,170.48044 119.205565,170.48044 C119.786582,170.48044 125.406912,170.190198 128.700875,170.190198 C133.061185,170.190198 138.099732,170.48044 138.874422,170.48044 C139.358985,170.48044 139.456204,170.190198 139.456204,169.802955 L139.456204,167.482549 C139.456204,167.193072 139.358985,166.999832 138.874422,166.999832 L137.421495,166.999832 C134.61133,166.999832 133.44853,165.646389 133.254858,163.422986 C133.158404,161.972542 133.158404,150.85476 133.158404,150.274277 L133.158404,145.44099 Z" id="Fill-35" fill="#FFFFFF"></path>
                <path d="M323.586143,150.564518 C325.814525,147.180912 337.054419,131.423084 338.507345,130.649361 C339.380019,130.165879 340.445601,129.876402 341.995746,129.876402 L342.964874,129.876402 C343.352219,129.876402 343.545891,129.682398 343.545891,129.198917 L343.545891,127.168753 C343.545891,126.589033 343.352219,126.39503 342.867655,126.39503 C342.286638,126.39503 338.895455,126.685271 337.151638,126.685271 C334.245019,126.685271 329.400145,126.39503 328.818362,126.39503 C328.333798,126.39503 328.140126,126.685271 328.140126,127.072515 L328.140126,129.198917 C328.140126,129.585396 328.333798,129.876402 328.818362,129.876402 L330.368508,129.876402 C332.500436,129.876402 332.402452,131.132842 331.628527,132.679525 C331.241182,133.453248 323.198033,145.150749 321.745872,147.567392 C320.194961,145.24775 312.152578,132.389283 311.57156,131.519322 C311.184215,130.938839 311.281434,129.876402 313.024486,129.876402 L314.478178,129.876402 C315.059196,129.876402 315.156415,129.585396 315.156415,129.198917 L315.156415,127.072515 C315.156415,126.589033 314.865523,126.39503 314.478178,126.39503 C313.800707,126.39503 307.210484,126.685271 305.080087,126.685271 C302.754486,126.685271 297.71594,126.39503 297.134157,126.39503 C296.552374,126.39503 296.360233,126.685271 296.360233,126.975513 L296.360233,129.101915 C296.360233,129.682398 296.552374,129.876402 297.036938,129.876402 L298.394176,129.876402 C299.168866,129.876402 300.91345,130.068878 301.881812,131.03584 C303.431957,132.486285 315.252868,149.790795 316.125543,151.531481 L316.125543,155.012089 C316.125543,160.715337 316.125543,164.195945 316.028324,165.065906 C315.93187,166.419349 315.350087,166.999832 312.249797,166.999832 L310.796105,166.999832 C310.40876,166.999832 310.215087,167.28931 310.215087,167.579551 L310.215087,169.706717 C310.215087,170.286436 310.40876,170.48044 310.893324,170.48044 C311.474341,170.48044 317.094671,170.190198 319.226599,170.190198 C322.423343,170.190198 327.849234,170.48044 328.431017,170.48044 C329.012035,170.48044 329.206473,170.190198 329.206473,169.802955 L329.206473,167.482549 C329.206473,167.193072 329.012035,166.999832 328.527471,166.999832 L327.268217,166.999832 C325.523634,166.999832 323.973488,166.90283 323.780581,164.872666 C323.586143,163.712464 323.682597,161.101817 323.586143,158.685173 L323.586143,150.564518 Z" id="Fill-37" fill="#FFFFFF"></path>
                <path d="M156.978741,141.187117 C156.978741,137.12679 156.978741,131.809258 157.075195,130.552817 C157.172414,129.876096 157.366086,129.392615 157.947104,129.295613 C158.528887,129.199375 159.207123,129.199375 160.079032,129.199375 C161.920069,129.199375 165.602142,129.876096 167.539633,131.325777 C169.961687,133.1627 170.447016,135.579344 170.447016,137.609508 C170.447016,139.640435 169.477889,142.15408 166.861396,143.99024 C164.923906,145.247445 161.435505,145.633924 156.978741,145.343683 L156.978741,141.187117 Z M156.978741,148.340809 C160.079032,148.340809 162.889197,148.244571 166.18316,149.40401 C169.865234,150.661215 172.481726,153.658341 172.481726,158.58863 C172.481726,165.066364 167.539633,167.579246 163.180088,167.579246 C158.335214,167.579246 156.978741,164.872361 156.978741,160.232314 L156.978741,148.340809 Z M143.316794,129.199375 C143.316794,129.779094 143.316794,129.876096 143.801358,129.876096 L145.641629,129.876096 C147.482666,129.876096 149.323703,129.972334 149.517375,133.259702 C149.614594,134.322903 149.808266,141.090116 149.808266,143.507523 L149.808266,150.661215 C149.808266,155.784743 149.808266,163.22944 149.517375,164.582883 C149.227249,165.839324 148.354575,166.999526 146.901648,166.999526 L144.285156,166.999526 C143.704139,166.999526 143.607685,167.095764 143.607685,167.483008 L143.607685,169.513171 C143.607685,170.189893 143.704139,170.480134 144.382375,170.480134 C146.029739,170.480134 149.517375,170.189893 152.133867,170.189893 C155.428596,170.189893 158.62534,170.480134 161.920069,170.480134 C168.508761,170.480134 173.062743,169.513171 175.679235,168.159729 C178.87598,166.709285 180.717782,162.262478 180.717782,158.878871 C180.717782,152.401137 176.453925,148.728053 168.993325,146.503885 L168.993325,146.311409 C175.097453,144.087242 178.004836,142.54056 178.004836,136.449305 C178.004836,132.872459 176.647598,129.972334 172.96629,128.039172 C170.737142,126.878969 166.667724,126.395488 161.241832,126.395488 C158.916232,126.395488 155.137704,126.68573 153.005776,126.68573 C151.359177,126.68573 144.76972,126.395488 143.897811,126.395488 C143.413247,126.395488 143.316794,126.588728 143.316794,127.072209 L143.316794,129.199375 Z" id="Fill-39" fill="#FFFFFF"></path>
                <path d="M274.363632,131.615865 L274.363632,148.53466 C275.041868,148.630898 276.010231,148.7279 277.27025,148.7279 C288.025579,148.7279 289.672178,141.186965 289.672178,138.673319 C289.672178,135.773195 288.219252,133.162548 286.474669,132.002345 C283.858942,130.359425 281.145996,129.489464 277.27025,129.489464 C275.816558,129.489464 274.363632,129.875943 274.363632,131.615865 M266.999484,148.147417 L266.999484,142.153927 L266.999484,132.872306 C266.903031,130.939144 266.031122,129.875943 263.317411,129.875943 L262.349048,129.875943 C262.058157,129.875943 261.960938,129.585702 261.960938,129.199222 L261.960938,126.878817 C261.960938,126.588575 262.155376,126.395335 262.542721,126.395335 C263.026519,126.395335 269.034194,126.685577 270.778012,126.685577 C271.940812,126.685577 280.370541,126.395335 281.63056,126.395335 C287.444562,126.395335 291.804107,128.039019 294.226161,130.166185 C296.357324,132.196349 297.617343,134.999472 297.617343,137.223639 C297.617343,143.89385 293.838816,147.760937 286.183777,150.467822 C288.412924,151.144543 290.35118,154.14167 294.32338,159.74868 C295.680618,161.682605 297.908234,164.58273 299.749271,165.936173 C301.10651,166.903136 302.365764,167.000137 304.108816,167.000137 C304.496926,167.000137 304.594145,167.289615 304.594145,167.870098 L304.594145,169.80326 C304.594145,170.18974 304.400473,170.479982 304.012362,170.479982 C303.81869,170.479982 303.044,170.38298 302.074872,170.285978 C301.202963,170.285978 300.039397,170.18974 299.071035,170.18974 C296.842653,170.18974 294.517052,170.285978 292.870453,170.38298 C291.029417,169.029537 286.76556,161.199124 285.894417,159.74868 C282.406016,153.75519 280.951558,151.628025 276.88214,151.628025 C275.913777,151.628025 275.041868,151.628025 274.363632,151.821265 L274.363632,154.14167 L274.363632,164.58273 C274.557304,165.936173 275.139087,167.000137 277.076578,167.000137 L279.595851,167.000137 C279.983196,167.000137 280.176868,167.193377 280.176868,167.482855 L280.176868,169.80326 C280.176868,170.285978 279.983196,170.479982 279.401413,170.479982 C278.723176,170.479982 273.490957,170.18974 270.294213,170.18974 C268.662159,170.18974 266.47588,170.25619 264.040812,170.408185 C263.243157,170.422697 262.793041,170.42728 261.995386,170.426516 C259.34368,170.423461 256.812159,170.18974 255.201539,170.18974 C253.361267,170.18974 247.643719,170.479982 246.3837,170.479982 C245.706229,170.479982 245.60901,169.9965 245.60901,169.61002 L245.60901,167.579093 C245.60901,167.289615 245.706229,167.000137 246.093574,167.000137 L247.643719,167.000137 C248.806519,167.000137 249.193864,166.129412 249.193864,165.355689 C248.806519,163.422528 246.190027,155.688352 245.415337,153.464949 L229.815899,153.464949 C229.427789,154.625151 226.326733,162.648804 225.939388,163.809007 C225.357605,165.742933 225.648496,167.000137 227.683971,167.000137 L230.106025,167.000137 C230.687043,167.000137 230.783496,167.289615 230.783496,167.676095 L230.783496,169.80326 C230.783496,170.18974 230.687043,170.479982 230.203244,170.479982 C229.874078,170.479982 224.474979,170.260009 220.811277,170.247788 C217.520376,170.237095 215.685463,170.375342 212.374659,170.38298 C210.533622,169.029537 206.269766,161.199124 205.397857,159.74868 C201.910221,153.75519 200.456529,151.628025 196.38711,151.628025 C195.417983,151.628025 194.546074,151.628025 193.867837,151.821265 L193.867837,154.14167 L193.867837,164.58273 C194.06151,165.936173 194.642527,167.000137 196.580783,167.000137 L199.100056,167.000137 C199.487401,167.000137 199.680308,167.193377 199.680308,167.482855 L199.680308,169.80326 C199.680308,170.285978 199.487401,170.479982 198.906384,170.479982 C198.227382,170.479982 192.995928,170.18974 189.798419,170.18974 C187.375599,170.18974 182.434271,170.479982 181.756035,170.479982 C181.36869,170.479982 181.175017,170.18974 181.175017,169.707022 L181.175017,167.482855 C181.175017,167.193377 181.36869,167.000137 181.756035,167.000137 L182.918835,167.000137 C185.244436,167.000137 186.407236,166.612894 186.407236,164.485728 C186.50369,159.74868 186.407236,154.044668 186.50369,148.147417 L186.50369,142.153927 L186.50369,132.872306 C186.407236,130.939144 185.534562,129.875943 182.822382,129.875943 L181.852488,129.875943 C181.562362,129.875943 181.465143,129.585702 181.465143,129.199222 L181.465143,126.878817 C181.465143,126.588575 181.658816,126.395335 182.046926,126.395335 C182.53149,126.395335 188.538399,126.685577 190.282983,126.685577 C191.445017,126.685577 199.874746,126.395335 201.134766,126.395335 C206.948767,126.395335 211.308312,128.039019 213.730366,130.166185 C215.862295,132.196349 217.122314,134.999472 217.122314,137.223639 C217.122314,143.89385 213.343021,147.760937 205.687983,150.467822 C207.91713,151.144543 209.85462,154.14167 213.827585,159.74868 C215.184058,161.682605 217.413205,164.58273 219.253477,165.936173 C219.854397,165.723838 220.234087,165.352634 220.513496,164.96921 C221.191733,164.196251 226.13306,152.594988 228.458661,147.760937 C229.136897,146.407495 234.85368,133.25955 235.435463,131.615865 C235.629136,131.036146 236.210153,129.972945 235.531151,129.682703 C235.338244,129.489464 235.047353,129.005982 235.145337,128.715741 C235.047353,128.522501 235.241791,128.232259 236.1137,128.039019 C237.953971,127.748778 240.666917,126.008856 241.539591,125.235133 C241.732498,124.848653 242.120609,124.558411 242.702391,124.558411 C243.282643,124.558411 243.477081,124.945655 243.670754,125.621612 C245.027227,129.489464 249.96932,143.313366 251.228574,147.181218 C252.682266,152.014504 256.848138,163.422528 257.52714,164.38949 C258.786393,166.129412 260.433758,167.000137 262.081122,167.000137 L263.41463,167.000137 C265.739465,167.000137 266.903031,166.612894 266.903031,164.485728 C266.999484,159.74868 266.903031,154.044668 266.999484,148.147417 M231.26806,150.371584 L244.446209,150.371584 C244.058864,149.018142 239.504882,134.51599 239.311209,133.743031 C239.116771,133.162548 239.020318,132.776068 238.729426,132.776068 C238.438535,132.776068 238.244862,133.06631 237.953971,133.839269 C237.663845,134.612992 231.75339,149.403857 231.26806,150.371584 M193.867837,131.615865 L193.867837,148.53466 C194.546074,148.630898 195.515202,148.7279 196.774455,148.7279 C207.529785,148.7279 209.177149,141.186965 209.177149,138.673319 C209.177149,135.773195 207.722692,133.162548 205.97964,132.002345 C203.363147,130.359425 200.650202,129.489464 196.774455,129.489464 C195.321529,129.489464 193.867837,129.875943 193.867837,131.615865" id="Fill-41" fill="#FFFFFF"></path>
                <g id="Group-45" transform="translate(305.436047, 14.218784)">
                    <mask id="mask-6" fill="white">
                        <use xlink:href="#path-5"></use>
                    </mask>
                    <g id="Clip-44"></g>
                    <path d="M3.66308915,0.162535305 C3.78250775,0.0777542012 3.74576357,0.0769904075 4.03588953,0.109069744 C5.52785659,0.274812982 10.9682926,0.784263397 21.498564,0.784263397 L25.3337384,0.784263397 C28.4661802,0.784263397 31.8405213,0.655946051 35.4935058,0.505478687 C37.3299496,0.45277692 48.5905116,0.592551172 50.8908508,0.592551172 C52.999814,0.592551172 59.518845,0.305364731 60.1901919,0.305364731 C60.5729438,0.305364731 60.8607733,0.496313163 60.8607733,0.975211828 L60.8607733,3.07946354 C60.8607733,3.4621242 60.7650853,3.74854684 60.1901919,3.74854684 L58.7518101,3.74854684 C57.0263643,3.74854684 56.9306764,4.8010546 57.3141938,5.37466369 C57.8890872,6.23545921 65.8457345,18.9572075 67.3790388,21.2524076 C68.8174205,18.8617333 76.7740678,7.28796697 77.1568198,6.52264565 C77.9238547,4.99200303 78.0203081,3.74854684 75.911345,3.74854684 L74.3772752,3.74854684 C73.8980698,3.74854684 73.7059283,3.4621242 73.7059283,3.07946354 L73.7059283,0.975211828 C73.7059283,0.592551172 73.8980698,0.305364731 74.3772752,0.305364731 C74.9529341,0.305364731 79.7457539,0.592551172 82.6217519,0.592551172 C84.3464322,0.592551172 87.7024012,0.305364731 88.2765291,0.305364731 C88.7557345,0.305364731 88.9486415,0.496313163 88.9486415,1.07068604 L88.9486415,3.07946354 C88.9486415,3.55759841 88.7557345,3.74854684 88.3729826,3.74854684 L87.4145717,3.74854684 C85.8805019,3.74854684 84.8256376,4.03573329 83.9629147,4.51386816 C82.526064,5.27918947 71.4048236,20.869747 69.200938,24.2174549 L69.200938,32.2518011 C69.296626,34.6432392 69.200938,37.2256258 69.392314,38.372844 C69.5836899,40.3816215 71.1177597,40.4778595 72.8432054,40.4778595 L74.0894457,40.4778595 C74.5686512,40.4778595 74.7607926,40.6688079 74.7607926,40.9559944 L74.7607926,43.2511945 C74.7607926,43.6338552 74.5686512,43.9210416 73.9937578,43.9210416 C73.4188643,43.9210416 68.0496202,43.6338552 64.8865581,43.6338552 C62.7783605,43.6338552 57.2177403,43.9210416 56.6428469,43.9210416 C56.1636415,43.9210416 55.9722655,43.7293294 55.9722655,43.1557203 L55.9722655,41.0514686 C55.9722655,40.7642821 56.1636415,40.4778595 56.5471589,40.4778595 L57.9847752,40.4778595 C61.0529147,40.4778595 61.6278081,39.9034866 61.7234961,38.5645562 C61.8191841,37.7037607 61.8191841,34.2605786 61.8191841,28.6169067 L61.8191841,25.1737246 C60.9572267,23.4521336 49.261093,6.33169722 47.7277888,4.89652881 C46.9163547,4.08767126 45.5552888,3.82569001 44.6925659,3.76458651 C45.2621008,6.35690242 46.0360252,9.75425691 46.3414612,11.4009962 C46.4371492,11.782893 46.2450078,11.9746053 45.8622558,12.1655537 L44.2324981,12.6444524 C43.6568391,12.8354008 43.3697752,12.7399266 43.1776337,12.2617917 C42.0278469,9.87035355 40.3980891,6.71359409 38.384814,4.89652881 C35.9887868,4.03573329 28.9752403,3.94025907 27.2497946,3.94025907 L27.2497946,20.0089515 C27.2497946,30.0520752 27.2497946,37.2256258 27.3454826,37.9901833 C27.5368585,39.520826 28.0168295,40.4778595 29.5508992,40.4778595 L33.1931667,40.4778595 C33.6731376,40.4778595 33.8645136,40.7642821 33.8645136,41.3378912 L33.8645136,43.3466687 C33.8645136,43.6338552 33.6731376,43.9210416 33.1931667,43.9210416 C32.5225853,43.9210416 26.5792132,43.6338552 23.4161512,43.6338552 C20.7315291,43.6338552 14.5003275,43.9210416 13.7332926,43.9210416 C13.1583992,43.9210416 12.9670233,43.6338552 12.9670233,43.0594823 L12.9670233,41.1469428 C12.9670233,40.6688079 13.1583992,40.4778595 13.5419167,40.4778595 L17.3763256,40.4778595 C18.8139419,40.4778595 19.4852888,39.7125382 19.5809767,38.9472169 C19.8688062,35.3123225 19.8688062,30.2430236 19.8688062,24.5046413 L19.8688062,3.94025907 C18.0476725,3.94025907 12.6646492,3.84402106 9.11806977,4.8010546 C6.72127713,6.61811987 4.70800194,9.67940512 3.46176163,12.1655537 C3.27038566,12.5482144 2.9825562,12.8354008 2.59903876,12.6444524 L0.872827519,11.9746053 C0.393622093,11.782893 0.393622093,11.4009962 0.490075581,11.0175717 C1.04430039,9.2807048 2.71003682,3.38192586 3.48855426,0.487911432 C3.52989147,0.33591648 3.54520155,0.245025027 3.66308915,0.162535305" id="Fill-43" fill="#FFFFFF" mask="url(#mask-6)"></path>
                </g>
            </g>
        </g>
    </g>
</svg>